<?xml version="1.0" encoding="UTF-8"?> <svg xmlns="http://www.w3.org/2000/svg" width="180" height="33" viewBox="0 0 180 33" fill="none"> <path d="M161.191 7.46484L161.198 10.7828H155.661L155.706 24.8842H152.067V10.7828H146.821L146.82 7.46484H161.191Z" fill="#101820"></path> <path d="M117.342 7.18945C119.614 7.18945 121.501 8.03529 123.002 9.72696C124.503 11.4187 125.253 13.5698 125.253 16.1804C125.253 18.8119 124.503 20.9735 123.002 22.6652C121.522 24.3359 119.625 25.1713 117.311 25.1713C114.705 25.1713 112.549 24.0159 111.152 21.8438V32.6272H107.834V7.46595H111.428V10.5074C112.825 8.29362 114.716 7.18945 117.342 7.18945ZM116.561 21.788C118.061 21.788 119.291 21.2659 120.25 20.2216C121.209 19.1774 121.689 17.8303 121.689 16.1804C121.689 14.5305 121.209 13.1834 120.25 12.1392C119.291 11.0949 118.061 10.5728 116.561 10.5728C115.039 10.5728 113.778 11.1054 112.777 12.1705C111.776 13.2148 111.276 14.5514 111.276 16.1804C111.276 17.8303 111.776 19.1774 112.777 20.2216C113.778 21.2659 115.039 21.788 116.561 21.788Z" fill="#101820"></path> <path d="M100.921 7.46484H105.068V24.8842H101.474L101.522 17.639V12.1938L93.2053 24.8842H89.0312V7.46484H92.6257L92.5776 14.8039L92.6257 20.1837L100.921 7.46484Z" fill="#101820"></path> <path d="M139.907 7.46484H144.054V24.8842H140.46L140.508 17.639V12.1938L132.192 24.8842H128.018V7.46484H131.612L131.564 14.8039L131.612 20.1837L139.907 7.46484Z" fill="#101820"></path> <path d="M175.852 7.46484H180V24.8842H176.405L176.453 17.639V12.1938L168.137 24.8842H163.963V7.46484H167.557L167.509 14.8039L167.557 20.1837L175.852 7.46484Z" fill="#101820"></path> <path d="M86.2673 7.46484V24.8842H82.6729V10.7828H73.8249V24.8842H70.2305V7.46484H86.2673Z" fill="#101820"></path> <path d="M58.9758 25.1618C56.4276 25.1618 54.2972 24.306 52.5846 22.5943C50.8927 20.8827 50.0469 18.7431 50.0469 16.1756C50.0469 13.6082 50.8927 11.4686 52.5846 9.75693C54.2972 8.04527 56.4381 7.18945 59.0071 7.18945C61.0957 7.18945 62.9339 7.79479 64.5213 9.00546C66.1086 10.1953 67.0902 11.8026 67.4662 13.8273H63.8007C63.4874 12.7628 62.8921 11.9382 62.0148 11.3538C61.1377 10.7693 60.1352 10.4771 59.0071 10.4771C57.4197 10.4771 56.1248 11.0094 55.1223 12.0739C54.1197 13.1385 53.6184 14.5057 53.6184 16.1756C53.6184 17.8455 54.1197 19.2128 55.1223 20.2773C56.1248 21.3419 57.4095 21.8742 58.9758 21.8742C60.1247 21.8742 61.1272 21.5715 61.9836 20.9662C62.8609 20.3608 63.4664 19.5363 63.8007 18.4926H67.4662C67.0695 20.5591 66.0774 22.1873 64.49 23.3771C62.9026 24.5669 61.0645 25.1618 58.9758 25.1618Z" fill="#101820"></path> <path d="M43.6862 7.46595H47.2807V24.8853H43.6862V21.8438C42.3151 24.0147 40.394 25.1618 37.7764 25.1618C35.4704 25.1618 33.5694 24.3269 32.0739 22.657C30.5987 20.9662 29.8613 18.8057 29.8613 16.1756C29.8613 13.5664 30.6093 11.4164 32.1048 9.72563C33.6007 8.03485 35.4809 7.18945 37.7451 7.18945C40.3627 7.18945 42.2943 8.29481 43.6862 10.5074V7.46595ZM38.5243 21.7802C40.0409 21.7802 41.2976 21.2584 42.2949 20.2147C43.2919 19.171 43.7905 17.8247 43.7905 16.1756C43.7905 14.5475 43.2919 13.2115 42.2949 12.1678C41.2976 11.1033 40.0409 10.571 38.5243 10.571C37.0284 10.571 35.8027 11.0929 34.8471 12.1365C33.8916 13.1802 33.4138 14.5266 33.4138 16.1756C33.4138 17.8247 33.8916 19.171 34.8471 20.2147C35.8027 21.2584 37.0284 21.7802 38.5243 21.7802Z" fill="#101820"></path> <path fill-rule="evenodd" clip-rule="evenodd" d="M25.4374 10.7846C25.4374 14.147 22.7145 16.869 19.3521 16.869C15.9954 16.869 13.2715 14.147 13.2715 10.7846C13.2715 7.42867 15.9954 4.70312 19.3521 4.70312C22.7145 4.70312 25.4374 7.42867 25.4374 10.7846Z" fill="#FA4616"></path> <path fill-rule="evenodd" clip-rule="evenodd" d="M0 24.8848H27.0968L13.5484 0L0 24.8848Z" fill="#0047BB"></path> <path fill-rule="evenodd" clip-rule="evenodd" d="M16.4959 5.41406C14.5778 6.43763 13.2715 8.45933 13.2715 10.7833C13.2715 14.1458 15.9954 16.8678 19.3521 16.8678C20.4276 16.8678 21.4377 16.5893 22.3141 16.1005L16.4959 5.41406Z" fill="#001A72"></path> </svg> 